<?xml version="1.0" encoding="utf-8"?>
<!-- Generator: Adobe Illustrator 19.2.0, SVG Export Plug-In . SVG Version: 6.00 Build 0)  -->
<svg version="1.1" id="Layer_1" xmlns="http://www.w3.org/2000/svg" xmlns:xlink="http://www.w3.org/1999/xlink" x="0px" y="0px"
	 viewBox="0 0 508.3 339.2" style="enable-background:new 0 0 508.3 339.2;" xml:space="preserve">
<style type="text/css">
	.st0{fill:#2E3192;}
</style>
<path class="st0" d="M400.1,61.2c-4.9,0-8.8,0-13.4,0c0.8-1.8,19.6-34.9,28.8-50.2c0.9-1.5,3.1-3.2,4.8-3.2
	c28.7-0.2,87.2,0.1,88.1,0.3c0,64.2,0,128.3,0,192.9c-17.5,0-35,0-53,0c0-11.3,0-22.6,0-34.3c0,0-31.7-0.3-45.2-0.5
	c-3.5-0.1-5,1.3-6.3,4.3c-4.1,9.3-8.4,18.5-12.8,27.6c-0.7,1.4-2.7,3.2-4.1,3.2c-19,0.2-38,0.1-57,0.1c-0.3,0-0.6-0.2-1.3-0.6
	C352.3,154.4,376,108.2,400.1,61.2z M454.8,124.8c0-20.9,0-41.3,0-61.7c-0.3-0.1-0.7-0.2-1-0.2c-9.5,20.5-19,40.9-28.8,62
	C435.6,124.8,445,124.8,454.8,124.8z"/>
<path class="st0" d="M71.8,61.1c-5.1,0-8.9,0-13.4,0c0.7-1.6,1.1-2.8,1.7-3.8c8.9-15.4,17.8-30.8,27-46.1c0.9-1.6,3.1-3.3,4.7-3.4
	c28.8-0.2,57.7-0.1,86.5-0.1c0.3,0,0.6,0.2,1.4,0.4c0,64.1,0,128.2,0,192.8c-17.3,0-34.6,0-52.5,0c0-11.3,0-22.7,0-34.8
	c-6,0-11.2,0-16.5,0c-9.3,0-18.7,0.2-28-0.1c-4-0.1-5.9,1.3-7.4,4.9c-3.9,9.2-8.2,18.2-12.6,27.2c-0.7,1.3-2.4,3-3.7,3.1
	c-19.3,0.2-38.6,0.1-58.9,0.1C24,154.5,47.7,108.3,71.8,61.1z M126.9,62.6c-0.4-0.1-0.8-0.2-1.1-0.3c-9.6,20.6-19.1,41.3-28.9,62.3
	c10.6,0,20.2,0,30,0C126.9,103.7,126.9,83.2,126.9,62.6z"/>
<path class="st0" d="M352.6,74c-6.2-3.8-12-8.1-18.3-11.3c-33.5-17-70.1-2-81.7,32.8c-10.6,31.7,13.6,71.3,55.7,61.5
	c8.9-2.1,17.5-5.6,26.9-8.7c-3.7,8.3-7.2,16.5-11,24.5c-4,8.4-8.1,16.8-12.4,25c-0.9,1.7-2.6,3.8-4.3,4.3
	c-42.9,13.5-88.7-3.7-106.5-44c-11.7-26.5-8.5-52.8,4.1-78c18.6-37.1,47.7-61,89.3-68c16.1-2.7,32.2-2.3,48.2,0.6
	c0.9,0.2,1.9,0.2,3.4,0.3c0-4,0-7.8,0-13c12.5,8.6,24,16.5,35.5,24.4C371.6,41.2,362,57.7,352.6,74z"/>
<rect y="222.4" class="st0" width="508.3" height="6.9"/>
<g>
	<path class="st0" d="M72.9,302.5c0,25.5-17.7,36.7-34.4,36.7c-18.7,0-33.1-13.7-33.1-35.5c0-23.1,15.1-36.7,34.2-36.7
		C59.5,267,72.9,281.4,72.9,302.5z M18.1,303.3c0,15.1,8.7,26.5,21,26.5c12,0,21-11.3,21-26.8c0-11.7-5.8-26.5-20.7-26.5
		C24.5,276.4,18.1,290.1,18.1,303.3z"/>
	<path class="st0" d="M103.9,248.8v19.8h18v9.6h-18v37.2c0,8.6,2.4,13.4,9.4,13.4c3.3,0,5.7-0.4,7.3-0.9l0.6,9.4
		c-2.4,1-6.3,1.7-11.1,1.7c-5.8,0-10.6-1.9-13.6-5.3c-3.6-3.7-4.9-9.8-4.9-18v-37.7H80.9v-9.6h10.7V252L103.9,248.8z"/>
	<path class="st0" d="M197.6,302.5c0,25.5-17.7,36.7-34.4,36.7c-18.7,0-33.1-13.7-33.1-35.5c0-23.1,15.1-36.7,34.2-36.7
		C184.2,267,197.6,281.4,197.6,302.5z M142.8,303.3c0,15.1,8.7,26.5,21,26.5c12,0,21-11.3,21-26.8c0-11.7-5.8-26.5-20.7-26.5
		C149.2,276.4,142.8,290.1,142.8,303.3z"/>
	<path class="st0" d="M213.4,287.3c0-7.1-0.1-13-0.6-18.7h11l0.6,11.1h0.4c3.9-6.6,10.3-12.7,21.7-12.7c9.4,0,16.5,5.7,19.5,13.8
		h0.3c2.1-3.9,4.9-6.8,7.7-9c4.1-3.1,8.7-4.9,15.3-4.9c9.1,0,22.7,6,22.7,30v40.7h-12.3v-39.1c0-13.3-4.9-21.3-15-21.3
		c-7.1,0-12.7,5.3-14.8,11.4c-0.6,1.7-1,4-1,6.3v42.7h-12.3v-41.4c0-11-4.9-19-14.4-19c-7.8,0-13.6,6.3-15.6,12.6
		c-0.7,1.9-1,4-1,6.1v41.7h-12.3V287.3z"/>
	<path class="st0" d="M370.6,337.6l-1-8.7h-0.4c-3.9,5.4-11.3,10.3-21.1,10.3c-14,0-21.1-9.8-21.1-19.8c0-16.7,14.8-25.8,41.5-25.7
		v-1.4c0-5.7-1.6-16-15.7-16c-6.4,0-13.1,2-18,5.1l-2.9-8.3c5.7-3.7,14-6.1,22.7-6.1c21.1,0,26.3,14.4,26.3,28.2v25.8
		c0,6,0.3,11.8,1.1,16.5H370.6z M368.8,302.4c-13.7-0.3-29.2,2.1-29.2,15.6c0,8.1,5.4,12,11.8,12c9,0,14.7-5.7,16.7-11.6
		c0.4-1.3,0.7-2.7,0.7-4V302.4z"/>
	<path class="st0" d="M415.7,248.8v19.8h18v9.6h-18v37.2c0,8.6,2.4,13.4,9.4,13.4c3.3,0,5.7-0.4,7.3-0.9l0.6,9.4
		c-2.4,1-6.3,1.7-11.1,1.7c-5.8,0-10.6-1.9-13.6-5.3c-3.6-3.7-4.9-9.8-4.9-18v-37.7h-10.7v-9.6h10.7V252L415.7,248.8z"/>
	<path class="st0" d="M454,305.4c0.3,17,11.1,24,23.7,24c9,0,14.4-1.6,19.1-3.6l2.1,9c-4.4,2-12,4.3-23,4.3c-21.3,0-34-14-34-34.8
		s12.3-37.2,32.4-37.2c22.5,0,28.5,19.8,28.5,32.5c0,2.6-0.3,4.6-0.4,5.8H454z M490.8,296.4c0.1-8-3.3-20.4-17.4-20.4
		c-12.7,0-18.3,11.7-19.3,20.4H490.8z"/>
</g>
</svg>
